<?xml version="1.0" encoding="iso-8859-1"?>
<!-- Generator: Adobe Illustrator 23.0.1, SVG Export Plug-In . SVG Version: 6.00 Build 0)  -->
<svg version="1.1" id="borrowing-layer" xmlns="http://www.w3.org/2000/svg" xmlns:xlink="http://www.w3.org/1999/xlink" x="0px"
	 y="0px" viewBox="0 0 18 18" style="enable-background:new 0 0 18 18;" xml:space="preserve">
<g id="borrowing">
	<rect y="0" style="opacity:0.25;fill:none;" width="18" height="18"/>
	<path d="M11.5,0L5,6.499V6.8h1.396L11.5,1.697l5.3,5.299v5.785h-2.6v1.2H18V6.499L11.5,0z M11.5,8h-10C0.675,8,0,8.675,0,9.5V11
		v1.2v4.3C0,17.325,0.675,18,1.5,18h10c0.825,0,1.5-0.675,1.5-1.5v-4.3V11V9.5C13,8.675,12.325,8,11.5,8z M11.8,16.5
		c0,0.163-0.137,0.3-0.3,0.3h-10c-0.163,0-0.3-0.137-0.3-0.3v-4.3h10.6V16.5z M11.8,11H1.2V9.5c0-0.163,0.137-0.3,0.3-0.3h10
		c0.163,0,0.3,0.137,0.3,0.3V11z M10,14H8v1.2h2V14z"/>
</g>
</svg>
