<?xml version="1.0" encoding="iso-8859-1"?>
<!-- Generator: Adobe Illustrator 23.0.1, SVG Export Plug-In . SVG Version: 6.00 Build 0)  -->
<svg version="1.1" id="fx-layer" xmlns="http://www.w3.org/2000/svg" xmlns:xlink="http://www.w3.org/1999/xlink" x="0px" y="0px"
	 viewBox="0 0 18 18" style="enable-background:new 0 0 18 18;" xml:space="preserve">
<g id="fx">
	<rect y="0" style="opacity:0.25;fill:none;" width="18" height="18"/>
	<path d="M9,0C5.862,0,3.108,1.611,1.5,4.047V1.1L0.3,2.3V6H4l1.2-1.2H2.447C3.836,2.641,6.248,1.2,9,1.2c4.301,0,7.8,3.499,7.8,7.8
		c0,0.62-0.081,1.221-0.218,1.8h1.237C17.937,10.218,18,9.617,18,9C18,4.029,13.971,0,9,0z M12.8,13.2h2.753
		c-1.388,2.159-3.801,3.6-6.553,3.6c-4.301,0-7.8-3.499-7.8-7.8c0-0.62,0.081-1.221,0.218-1.8H0.181C0.063,7.782,0,8.383,0,9
		c0,4.971,4.029,9,9,9c3.138,0,5.892-1.611,7.5-4.047V16.9l1.2-1.2V12H14L12.8,13.2z M5.623,13.223l7.6-7.6l-0.849-0.848l-7.6,7.6
		L5.623,13.223z M8.6,6.8C8.6,5.806,7.794,5,6.8,5S5,5.806,5,6.8s0.806,1.8,1.8,1.8S8.6,7.794,8.6,6.8z M6.2,6.8
		c0-0.331,0.269-0.6,0.6-0.6s0.6,0.269,0.6,0.6S7.131,7.4,6.8,7.4S6.2,7.131,6.2,6.8z M9.4,11.2c0,0.994,0.806,1.8,1.8,1.8
		s1.8-0.806,1.8-1.8s-0.806-1.8-1.8-1.8S9.4,10.206,9.4,11.2z M11.8,11.2c0,0.331-0.269,0.6-0.6,0.6s-0.6-0.269-0.6-0.6
		s0.269-0.6,0.6-0.6S11.8,10.869,11.8,11.2z"/>
</g>
</svg>
