<?xml version="1.0" encoding="utf-8"?>
<!-- Generator: Adobe Illustrator 17.1.0, SVG Export Plug-In . SVG Version: 6.00 Build 0)  -->
<!DOCTYPE svg PUBLIC "-//W3C//DTD SVG 1.1//EN" "http://www.w3.org/Graphics/SVG/1.1/DTD/svg11.dtd">
<svg version="1.1"
	 id="svg559" xmlns:cc="http://creativecommons.org/ns#" xmlns:dc="http://purl.org/dc/elements/1.1/" xmlns:rdf="http://www.w3.org/1999/02/22-rdf-syntax-ns#"
	 xmlns="http://www.w3.org/2000/svg" xmlns:xlink="http://www.w3.org/1999/xlink" x="0px" y="0px" viewBox="0 0 640 480"
	 enable-background="new 0 0 640 480" xml:space="preserve">
<g>
	<defs>
		<rect id="SVGID_1_" y="0" width="640" height="480"/>
	</defs>
	<clipPath id="SVGID_2_">
		<use xlink:href="#SVGID_1_"  overflow="visible"/>
	</clipPath>
	<g id="flag" transform="matrix(.93750 0 0 .93750 0 -.000015303)" clip-path="url(#SVGID_2_)">
		<rect id="rect608" x="0" y="438.9" fill="#319208" width="1024" height="73.1"/>
		<rect id="rect612" x="0" y="292.6" fill="#DE2010" width="1024" height="73.1"/>
		<rect id="rect611" x="0" y="365.7" fill="#FFD200" width="1024" height="73.1"/>
		<rect id="rect614" x="0" y="146.3" fill="#DE2010" width="1024" height="73.1"/>
		<rect id="rect615" x="0" y="73.1" fill="#FFD200" width="1024" height="73.1"/>
		<rect id="rect616" x="0" y="0" fill="#319208" width="1024" height="73.1"/>
		<path id="path623" d="M28.9,0v512l343.8-256L28.9,0L28.9,0z"/>
		<rect id="rect621" x="0" y="0" width="29.3" height="512"/>
		<path id="path620" d="M0,0v512l373-256L0,0L0,0z"/>
		<rect id="rect613" x="0" y="219.4" width="1024" height="73.1"/>
		<path id="path617" fill="#FFFFFF" d="M0,0v512l343.8-256L0,0L0,0z"/>
		<g id="g584" transform="matrix(1.0321 0 0 1.0321 -510.11 -15.114)">
			<polygon id="polygon583" fill="#D62419" points="622.1,125.7 648.5,213.3 742.9,214.1 667.8,266.3 696.2,356.3 623.3,301 
				546.5,355.8 576.6,269.4 500.7,213.3 592.2,215.2 			"/>
			<path id="path564" fill="#F7DF00" stroke="#000000" stroke-width="1.0667" d="M542.7,175.7c1.6-2.9,1.9-4.5,10.3-8
				c10.9-31.8,38.9-19.3,54.3,24.7c14.1,6.1,98.6,69.1,97.4,72.6c-0.6,3.2-11.2,0.6-11.2,0.6s-16.7,71.3-17,71.3
				c-31.2-4.2-79.7-4.8-112.8-4.2c0.3-5.5-9-41.1-9-41.1s-8-2.6,5.5-29.9C574.5,227.4,577.4,171.5,542.7,175.7L542.7,175.7z"/>
			<path id="path565" fill="none" stroke="#000000" stroke-width="1.0667" d="M571.3,162.8c0,2-1.6,3.5-3.5,3.5s-3.5-1.6-3.5-3.5
				s1.6-3.5,3.5-3.5S571.3,160.9,571.3,162.8z"/>
			<path id="path566" fill="none" stroke="#000000" stroke-width="1.0667" d="M606.3,192.4c0,0-27.6,15.7-35.7,15.4"/>
			<path id="path567" fill="none" stroke="#000000" stroke-width="1.0667" d="M693.4,265.7c-1.9-1.6-102.5-6.4-98.3-40.5"/>
			<path id="path568" fill="none" stroke="#000000" stroke-width="1.0667" d="M611.2,266.3c0,0,10.9,6.4,20.2-10.3"/>
			<path id="path569" fill="none" stroke="#000000" stroke-width="1.0667" d="M623.4,266c0,0,7.7,7.1,19-8.4"/>
			<path id="path570" fill="none" stroke="#000000" stroke-width="1.0667" d="M554.9,291.7c0,0,7.1,1,8.4-3.2"/>
			<path id="path571" fill="none" stroke="#000000" stroke-width="1.0667" d="M588.3,333.1c0-0.3-7.1-45.6-7.1-45.6
				c34.9,3.1,71.1,3.3,104.8,9.3"/>
			<path id="path572" fill="none" stroke="#000000" stroke-width="1.0667" d="M584.8,288.2l9.6,11.2l10-9.6l8.4,9"/>
			<path id="path573" fill="none" stroke="#000000" stroke-width="1.0667" d="M615.3,299.1l8.4-7.4l9,8.7"/>
			<path id="path574" fill="none" stroke="#000000" stroke-width="1.0667" d="M634.3,300.4l9.3-8.4l7.1,8.4"/>
			<path id="path575" fill="none" stroke="#000000" stroke-width="1.0667" d="M654.5,300.7l8.4-5.8l7.4,7.1"/>
			<path id="path576" fill="none" stroke="#000000" stroke-width="1.0667" d="M676.1,301.7l6.1-5.8"/>
			<path id="path577" fill="none" stroke="#000000" stroke-width="1.0667" d="M583.2,298.4l10.3,11.9l10.3-9.3l9,9.6l10.3-9
				l8.7,10.3l10.6-9c0,0,8,10,9,10s10.6-8.4,10.6-8.4l9.3,10.3l12.9-10.3"/>
			<path id="path578" fill="none" stroke="#000000" stroke-width="1.0667" d="M584.8,310c0,0,82.9,3.2,96.4,6.4"/>
			<path id="path579" fill="none" stroke="#000000" stroke-width="1.0667" d="M598.6,272.4c0,0,78.7,4.2,91.3,9"/>
			<path id="path580" fill="none" stroke="#000000" stroke-width="1.0667" d="M582.6,239.6c0.6,4.8-5.1,21.5-11.2,27.3
				c-8.4,6.7-7.4,20.9-7.4,20.9c1,5.8,13.5,5.1,15.1,2.2c1.3-13.2,15.4-16.1,15.4-16.1s19.6-5.5,28-21.9"/>
			<path id="path581" fill="none" stroke="#000000" stroke-width="1.0667" d="M622.1,281.4c0,2.3-1.9,4.2-4.2,4.2s-4.2-1.9-4.2-4.2
				c0-2.3,1.9-4.2,4.2-4.2S622.1,279.1,622.1,281.4z"/>
			<path id="path582" fill="none" stroke="#000000" stroke-width="1.0667" d="M640.7,283c0,2.3-1.9,4.2-4.2,4.2s-4.2-1.9-4.2-4.2
				c0-2.3,1.9-4.2,4.2-4.2S640.7,280.7,640.7,283z"/>
		</g>
	</g>
</g>
</svg>
