<?xml version="1.0" encoding="UTF-8"?>
<svg width="21px" height="21px" viewBox="0 0 21 21" version="1.1" xmlns="http://www.w3.org/2000/svg" xmlns:xlink="http://www.w3.org/1999/xlink">
    <!-- Generator: Sketch 48.2 (47327) - http://www.bohemiancoding.com/sketch -->
    <title>Calendar_hover</title>
    <desc>Created with Sketch.</desc>
    <defs></defs>
    <g id="Page-1" stroke="none" stroke-width="1" fill="none" fill-rule="evenodd">
        <g id="Calendar_hover" fill="#666666" fill-rule="nonzero">
            <path d="M3,4 C2.44771525,4 2,4.44771525 2,5 L2,18 C2,18.5522847 2.44771525,19 3,19 L18,19 C18.5522847,19 19,18.5522847 19,18 L19,5 C19,4.44771525 18.5522847,4 18,4 L3,4 Z M3,2 L18,2 C19.6568542,2 21,3.34314575 21,5 L21,18 C21,19.6568542 19.6568542,21 18,21 L3,21 C1.34314575,21 2.22044605e-16,19.6568542 0,18 L0,5 C-2.22044605e-16,3.34314575 1.34314575,2 3,2 Z" id="Rectangle-2"></path>
            <rect id="Rectangle-3" x="4" y="0" width="2" height="5" rx="1"></rect>
            <rect id="Rectangle-3-Copy" x="15" y="0" width="2" height="5" rx="1"></rect>
            <rect id="Rectangle-4-Copy-3" x="4" y="11" width="3" height="2" rx="1"></rect>
            <rect id="Rectangle-4-Copy" x="9" y="7" width="3" height="2" rx="1"></rect>
            <rect id="Rectangle-4-Copy-4" x="9" y="11" width="3" height="2" rx="1"></rect>
            <rect id="Rectangle-4-Copy-2" x="14" y="7" width="3" height="2" rx="1"></rect>
            <rect id="Rectangle-4-Copy-5" x="14" y="11" width="3" height="2" rx="1"></rect>
            <rect id="Rectangle-4-Copy-8" x="4" y="15" width="3" height="2" rx="1"></rect>
            <rect id="Rectangle-4-Copy-7" x="9" y="15" width="3" height="2" rx="1"></rect>
            <rect id="Rectangle-4-Copy-6" x="14" y="15" width="3" height="2" rx="1"></rect>
        </g>
    </g>
</svg>