<?xml version="1.0" encoding="iso-8859-1"?>
<!-- Generator: Adobe Illustrator 23.0.1, SVG Export Plug-In . SVG Version: 6.00 Build 0)  -->
<svg version="1.1" id="help_x5F_active-layer" xmlns="http://www.w3.org/2000/svg" xmlns:xlink="http://www.w3.org/1999/xlink"
	 x="0px" y="0px" viewBox="0 0 18 18" style="enable-background:new 0 0 18 18;" xml:space="preserve">
<g id="help_x5F_active_1_">
	<g style="opacity:0.25;">
		<rect y="0" style="fill:none;" width="18" height="18"/>
	</g>
	<g>
		<g>
			<path d="M9,0C4.029,0,0,4.029,0,9s4.029,9,9,9s9-4.029,9-9S13.971,0,9,0z M8.999,14.5c-0.69,0-1.25-0.56-1.25-1.25
				S8.309,12,8.999,12s1.25,0.56,1.25,1.25S9.69,14.5,8.999,14.5z M11.222,8.542l-1.148,1.147C9.9,9.864,9.9,9.929,9.9,10.011V11
				H8.1v-0.989c0-0.798,0.4-1.292,0.7-1.594L9.95,7.269c0.311-0.31,0.447-0.741,0.374-1.184c-0.086-0.526-0.508-0.969-1.025-1.077
				c-0.419-0.087-0.824,0.008-1.145,0.27C7.838,5.534,7.657,5.914,7.657,6.319h-1.8c0-0.95,0.423-1.839,1.161-2.438
				C7.756,3.28,8.724,3.052,9.666,3.246c1.248,0.261,2.226,1.284,2.434,2.547C12.268,6.815,11.948,7.817,11.222,8.542z"/>
		</g>
	</g>
</g>
</svg>
