<svg xmlns="http://www.w3.org/2000/svg" viewBox="0 0 18 18"><defs><style>.cls-1{fill:none;}.cls-2{fill:#333;}</style></defs><g id="view"><rect id="Bounding_box" data-name="Bounding box" class="cls-1" width="18" height="18"/><path class="cls-2" d="M9,3A9.82,9.82,0,0,0,0,9a9.82,9.82,0,0,0,9,6,9.82,9.82,0,0,0,9-6A9.82,9.82,0,0,0,9,3Zm3.55,4.75A3.55,3.55,0,1,1,9,4.2,3.55,3.55,0,0,1,12.55,7.75ZM9,13.8A8.62,8.62,0,0,1,1.32,9,8.69,8.69,0,0,1,5,5.24a4.75,4.75,0,1,0,8,0A8.69,8.69,0,0,1,16.68,9,8.62,8.62,0,0,1,9,13.8Z"/></g></svg>