<?xml version="1.0" encoding="UTF-8"?>
<svg width="18px" height="18px" viewBox="0 0 18 18" version="1.1" xmlns="http://www.w3.org/2000/svg" xmlns:xlink="http://www.w3.org/1999/xlink">
    <!-- Generator: Sketch 61.2 (89653) - https://sketch.com -->
    <title>Link</title>
    <desc>Created with Sketch.</desc>
    <defs>
        <path d="M9.864,12.834 C9.797,12.917 9.725,12.998 9.647,13.075 L6.811,15.911 C6.239,16.484 5.476,16.8 4.665,16.8 C3.854,16.8 3.092,16.484 2.518,15.911 L2.09,15.483 C0.906,14.299 0.906,12.373 2.09,11.189 L4.926,8.353 C5.499,7.779 6.262,7.464 7.073,7.464 C7.884,7.464 8.647,7.78 9.22,8.353 L9.648,8.781 C9.704,8.837 9.756,8.895 9.807,8.954 C10.127,9.202 10.517,9.338 10.928,9.338 C11.09,9.338 11.249,9.315 11.401,9.275 C11.195,8.788 10.894,8.331 10.496,7.933 L10.068,7.505 C9.241,6.677 8.156,6.263 7.072,6.263 C5.988,6.263 4.904,6.677 4.077,7.504 L1.241,10.34 C-0.414,11.995 -0.414,14.677 1.241,16.331 L1.669,16.759 C2.496,17.586 3.581,18 4.665,18 C5.749,18 6.834,17.586 7.661,16.759 L10.497,13.923 C10.799,13.621 11.045,13.285 11.237,12.927 C11.135,12.933 11.032,12.936 10.929,12.936 C10.567,12.937 10.211,12.902 9.864,12.834 Z M16.759,1.669 L16.331,1.241 C15.504,0.414 14.419,0 13.335,0 C12.251,0 11.166,0.414 10.339,1.241 L7.504,4.077 C7.202,4.379 6.956,4.715 6.764,5.073 C6.866,5.067 6.969,5.064 7.072,5.064 C7.433,5.064 7.789,5.099 8.135,5.167 C8.202,5.084 8.274,5.003 8.352,4.926 L11.188,2.09 C11.761,1.516 12.524,1.2 13.335,1.2 C14.146,1.2 14.908,1.516 15.482,2.089 L15.91,2.517 C17.094,3.701 17.094,5.628 15.91,6.811 L13.074,9.647 C12.501,10.22 11.738,10.536 10.927,10.536 C10.116,10.536 9.353,10.22 8.78,9.647 L8.352,9.219 C8.296,9.164 8.244,9.106 8.194,9.047 C7.874,8.799 7.484,8.663 7.073,8.663 C6.911,8.663 6.752,8.686 6.6,8.726 C6.806,9.214 7.107,9.671 7.505,10.068 L7.933,10.496 C8.76,11.323 9.844,11.737 10.929,11.737 C12.014,11.737 13.097,11.323 13.925,10.496 L16.761,7.66 C18.414,6.006 18.414,3.324 16.759,1.669 Z" id="path-1"></path>
    </defs>
    <g id="review" stroke="none" stroke-width="1" fill="none" fill-rule="evenodd">
        <g id="04-viewports/VP1440" transform="translate(-958.000000, -6763.000000)">
            <g id="nextShare" transform="translate(100.000000, 6642.000000)">
                <g id="share" transform="translate(629.000000, 48.000000)">
                    <g id="Link" transform="translate(216.000000, 60.000000)">
                        <g id="System-icons/-Link-/" transform="translate(13.000000, 13.000000)">
                            <rect id="Container" fill="#FFFFFF" fill-rule="evenodd" opacity="0" x="0" y="0" width="18" height="18"></rect>
                            <mask id="mask-2" fill="white">
                                <use xlink:href="#path-1"></use>
                            </mask>
                            <use id="Icon-colour" fill="#FFFFFF" fill-rule="evenodd" xlink:href="#path-1"></use>
                        </g>
                    </g>
                </g>
            </g>
        </g>
    </g>
</svg>