<?xml version="1.0" encoding="UTF-8"?>
<svg width="9px" height="18px" viewBox="0 0 9 18" version="1.1" xmlns="http://www.w3.org/2000/svg" xmlns:xlink="http://www.w3.org/1999/xlink">
    <!-- Generator: Sketch 61.2 (89653) - https://sketch.com -->
    <title>facebook</title>
    <desc>Created with Sketch.</desc>
    <g id="Page-1" stroke="none" stroke-width="1" fill="none" fill-rule="evenodd">
        <path d="M9,0.129807692 L9,2.98557692 L7.36458333,2.98557692 C6.76735812,2.98557692 6.36458438,3.11538332 6.15625,3.375 C5.94791562,3.63461668 5.84375,4.02403587 5.84375,4.54326923 L5.84375,6.58774038 L8.89583333,6.58774038 L8.48958333,9.78966346 L5.84375,9.78966346 L5.84375,18 L2.65625,18 L2.65625,9.78966346 L0,9.78966346 L0,6.58774038 L2.65625,6.58774038 L2.65625,4.22956731 C2.65625,2.88821445 3.0173575,1.84796043 3.73958333,1.10877404 C4.46180917,0.36958765 5.4236051,0 6.625,0 C7.64583844,0 8.43749719,0.0432687981 9,0.129807692 Z" id="facebook" fill="#FFFFFF"></path>
    </g>
</svg>