<?xml version="1.0" encoding="UTF-8"?>
<svg width="18px" height="18px" viewBox="0 0 18 18" version="1.1" xmlns="http://www.w3.org/2000/svg" xmlns:xlink="http://www.w3.org/1999/xlink">
    <!-- Generator: Sketch 61.2 (89653) - https://sketch.com -->
    <title>linkedin</title>
    <desc>Created with Sketch.</desc>
    <g id="Page-1" stroke="none" stroke-width="1" fill="none" fill-rule="evenodd">
        <path d="M3.99435028,0.189473684 L3.99435028,12.3157895 L0.176168464,12.3157895 L0.176168464,0.189473684 L3.99435028,0.189473684 Z M2.163637,13.8315789 C3.51535728,13.8315789 4.35798665,14.7579718 4.35798665,15.9157895 C4.33292371,17.0992824 3.51535728,18 2.1890356,18 C0.861595038,18 -0.00564971751,17.0992824 -0.00564971751,15.9157895 C-0.00564971751,14.7579718 0.835860772,13.8315789 2.13801462,13.8315789 L2.163637,13.8315789 Z M10.0482233,8.61533067e-14 L10.0482233,6.82321437 C10.0482233,7.1885701 10.0734615,7.55357441 10.1758661,7.81444238 C10.4550498,8.544451 11.0925937,9.29987872 12.1618674,9.29987872 C13.5630346,9.29987872 14.1230772,8.17909527 14.1230772,6.53681016 L14.1230772,8.61533067e-14 L17.9943503,8.61533067e-14 L17.9943503,7.00606794 C17.9943503,10.759076 16.0847336,12.5052632 13.5371264,12.5052632 C11.5322567,12.5052632 10.6066911,11.3771328 10.0852198,10.5488843 L10.0473503,10.489 L10.0482233,12.2183904 L6.17616846,12.2183904 C6.22753827,11.0720707 6.17616846,8.61533067e-14 6.17616846,8.61533067e-14 L10.0482233,8.61533067e-14 Z" id="linkedin" fill="#FFFFFF" transform="translate(8.994350, 9.000000) scale(-1, 1) rotate(180.000000) translate(-8.994350, -9.000000) "></path>
    </g>
</svg>