<?xml version="1.0" encoding="UTF-8"?>
<svg width="14px" height="18px" viewBox="0 0 14 18" version="1.1" xmlns="http://www.w3.org/2000/svg" xmlns:xlink="http://www.w3.org/1999/xlink">
    <!-- Generator: Sketch 61.2 (89653) - https://sketch.com -->
    <title>pinterest</title>
    <desc>Created with Sketch.</desc>
    <g id="Page-1" stroke="none" stroke-width="1" fill="none" fill-rule="evenodd">
        <path d="M7.36457143,2.84217094e-14 C2.46857143,2.84217094e-14 0,3.51 0,6.43720408 C0,8.20946939 0.670959184,9.78593878 2.10985714,10.3736939 C2.34606122,10.4701224 2.55765306,10.3771837 2.62634694,10.116 C2.67373469,9.93508163 2.78632653,9.47902041 2.83646939,9.28891837 C2.90553061,9.0304898 2.87853061,8.93993878 2.6882449,8.7147551 C2.27332653,8.22526531 2.00810204,7.59159184 2.00810204,6.69397959 C2.00810204,4.08985714 3.9565102,1.75867347 7.08189796,1.75867347 C9.8487551,1.75867347 11.3692041,3.44957143 11.3692041,5.70765306 C11.3692041,8.6787551 10.0542857,11.1862653 8.10238776,11.1862653 C7.02422449,11.1862653 6.21753061,10.2947143 6.47614286,9.20130612 C6.78581633,7.89593878 7.3855102,6.48697959 7.3855102,5.54491837 C7.3855102,4.7014898 6.93312245,3.99783673 5.99602041,3.99783673 C4.89397959,3.99783673 4.00885714,5.13789796 4.00885714,6.66495918 C4.00885714,7.63769388 4.33744898,8.29561224 4.33744898,8.29561224 C4.33744898,8.29561224 3.2095102,13.0738776 3.0122449,13.9106939 C2.61826531,15.5769796 2.95310204,17.6199796 2.98138776,17.8262449 C2.99773469,17.9485714 3.15477551,17.9775918 3.22604082,17.8853878 C3.32797959,17.7525918 4.64032653,16.1324082 5.08646939,14.5133265 C5.21265306,14.0548776 5.81087755,11.6810816 5.81087755,11.6810816 C6.16904082,12.3637959 7.21542857,12.9653265 8.32830612,12.9653265 C11.6406735,12.9653265 13.8882857,9.94555102 13.8882857,5.90308163 C13.8884694,2.84657143 11.2992245,2.84217094e-14 7.36457143,2.84217094e-14 Z" id="pinterest" fill="#FFFFFF" fill-rule="nonzero"></path>
    </g>
</svg>