<?xml version="1.0" encoding="UTF-8"?>
<svg width="21px" height="18px" viewBox="0 0 21 18" version="1.1" xmlns="http://www.w3.org/2000/svg" xmlns:xlink="http://www.w3.org/1999/xlink">
    <!-- Generator: Sketch 61.2 (89653) - https://sketch.com -->
    <title>twitter</title>
    <desc>Created with Sketch.</desc>
    <g id="Page-1" stroke="none" stroke-width="1" fill="none" fill-rule="evenodd">
        <path d="M20.9943503,2.1375 C20.3991696,3.05625459 19.6796337,3.83905927 18.8357208,4.4859375 C18.8446041,4.61718816 18.8490457,4.81406119 18.8490457,5.0765625 C18.8490457,6.29531859 18.6802657,7.51171268 18.3427005,8.72578125 C18.0051354,9.93984982 17.4921329,11.1046819 16.8036777,12.2203125 C16.1152225,13.3359431 15.295751,14.322652 14.3452386,15.1804687 C13.3947262,16.0382855 12.2487986,16.7226537 10.9074213,17.2335938 C9.56604408,17.7445338 8.13141376,18 6.60348734,18 C4.1961149,18 1.99309124,17.3203193 -0.00564971751,15.9609375 C0.305265543,15.9984377 0.651708779,16.0171875 1.03369038,16.0171875 C3.03243134,16.0171875 4.8135049,15.370319 6.3769645,14.0765625 C5.44421872,14.0578124 4.60920168,13.7554717 3.87188835,13.1695313 C3.13457502,12.5835908 2.62823491,11.835942 2.35285282,10.9265625 C2.64600149,10.9734377 2.91693787,10.996875 3.16567008,10.996875 C3.54765168,10.996875 3.92518598,10.945313 4.29828429,10.8421875 C3.30335546,10.6265614 2.47944238,10.1039104 1.82652033,9.27421875 C1.17359829,8.4445271 0.847142161,7.48125548 0.847142161,6.384375 L0.847142161,6.328125 C1.45120609,6.68437678 2.09967677,6.87656236 2.79257363,6.9046875 C2.20627629,6.49218544 1.73991039,5.95312833 1.39346196,5.2875 C1.04701352,4.62187167 0.873791907,3.90000389 0.873791907,3.121875 C0.873791907,2.29687088 1.06922142,1.53281602 1.46008632,0.8296875 C2.53496479,2.22656948 3.84301009,3.34452705 5.38426145,4.18359375 C6.92551281,5.02266045 8.57555976,5.48906203 10.3344518,5.5828125 C10.2633855,5.22656072 10.2278528,4.87968919 10.2278528,4.5421875 C10.2278528,3.28593122 10.6475821,2.21484818 11.4870533,1.32890625 C12.3265245,0.44296432 13.3414255,0 14.5317868,0 C15.7754479,0 16.8236607,0.478120219 17.6764569,1.434375 C18.6447358,1.23749902 19.5552597,0.871877672 20.4080559,0.3375 C20.079374,1.41563039 19.4486697,2.24999705 18.5159239,2.840625 C19.3420701,2.74687453 20.168204,2.51250188 20.9943503,2.1375 Z" id="twitter" fill="#FFFFFF"></path>
    </g>
</svg>