<?xml version="1.0" encoding="UTF-8"?>
<svg x="0px"
	 y="0px" viewBox="0 0 18 18" style="enable-background:new 0 0 18 18;" xml:space="preserve" version="1.1" xmlns="http://www.w3.org/2000/svg" xmlns:xlink="http://www.w3.org/1999/xlink">
    <!-- Generator: Sketch 58 (84663) - https://sketch.com -->
    <title>System icons/ Security security question</title>
    <desc>Created with Sketch.</desc>
    <defs>
        <path d="M0,0 L0,6.043062 L0,7.261494 C0,12.952854 3.810606,16.533 9.018,18.036 C14.226396,16.533 18.036,11.734422 18.036,6.043062 L18.036,0 L0,0 Z M1.2,1.2 L1.2,6.42686667 L1.2,7.48073333 C1.2,12.4034 4.49593333,15.5 9,16.8 C13.5049333,15.5 16.8,11.3495333 16.8,6.42686667 L16.8,1.2 L1.2,1.2 Z M8.999,12.5 C8.447,12.5 7.999,12.948 7.999,13.5 C7.999,14.052 8.447,14.5 8.999,14.5 C9.551,14.5 9.999,14.052 9.999,13.5 C9.999,12.948 9.552,12.5 8.999,12.5 Z M9.604,3.539 C8.75,3.363 7.875,3.569 7.207,4.113 C6.54,4.656 6.157,5.46 6.157,6.319 L7.357,6.319 C7.357,5.823 7.578,5.358 7.964,5.044 C8.356,4.726 8.851,4.607 9.36,4.714 C9.996,4.847 10.514,5.391 10.62,6.037 C10.709,6.575 10.542,7.101 10.162,7.48 L9.013,8.629 C8.75,8.894 8.4,9.324 8.4,10.011 L8.4,11 L9.6,11 L9.6,10.011 C9.6,9.835 9.642,9.699 9.862,9.478 L11.01,8.33 C11.667,7.674 11.956,6.768 11.804,5.842 C11.616,4.7 10.732,3.775 9.604,3.539 Z" id="path-1"></path>
    </defs>
    <g id="System-icons/-Security-security-question" stroke="none" stroke-width="1" fill="none" fill-rule="evenodd">
        <mask id="mask-2" fill="white">
            <use xlink:href="#path-1"></use>
        </mask>
        <use id="Icon-colour" fill="#333333" xlink:href="#path-1"></use>
    </g>
</svg>